<svg width="1000" height="1000" viewBox="0 0 1000 1000" xmlns="http://www.w3.org/2000/svg"><defs/><path fill="#d10809" transform="matrix(0.5607899097511017 0 0 0.5607899097511017 2.196050451244491 39.89039005540663)" d="M 530.56385337667 597.36699119249 C 528.86385337667 595.46699119249 527.86385337667 594.46699119249 527.86385337667 594.46699119249 L 263.56385337667 594.46699119249 L 462.86385337667 793.76699119249 L 489.56385337667 820.46699119249 L 489.56385337667 820.46699119249 C 592.06385337667 689.96699119249 545.86385337667 615.86699119249 530.56385337667 597.36699119249 Z"/><g opacity="0.3" transform="matrix(0.5607899097511017 0 0 0.5607899097511017 2.196050451244491 39.89039005540663)"><path d="M 530.56385337667 597.36699119249 C 528.86385337667 595.46699119249 527.86385337667 594.46699119249 527.86385337667 594.46699119249 C 527.86385337667 594.46699119249 553.06385337667 672.26699119249 462.96385337667 793.76699119249 L 489.66385337667 820.46699119249 L 489.66385337667 820.46699119249 C 592.06385337667 689.96699119249 545.86385337667 615.86699119249 530.56385337667 597.36699119249 Z"/></g><path fill="#d10809" transform="matrix(0.5607899097511017 0 0 0.5607899097511017 2.196050451244491 39.89039005540663)" d="M 648.46385337667 715.76699119249 L 527.96385337667 594.36699119249 C 528.66385337667 595.06699119249 529.56385337667 596.06699119249 530.56385337667 597.26699119249 C 545.86385337667 615.76699119249 592.06385337667 689.86699119249 489.66385337667 820.36699119249 L 489.66385337667 820.36699119249 L 263.56385337667 1046.56699119249 L 527.96385337667 1046.56699119249 L 753.56385337667 820.06699119249 L 648.46385337667 715.76699119249 Z"/><path id="text" fill="#ececec" transform="matrix(1.430961071175561 0 0 1.430961071175561 314.1759122405309 122.39724094766814)" d="M 158.35449942503 246.64852523478 C 158.35449942503 254.26452523478 156.38649942503 260.04052523478 152.45049942503 263.97652523478 C 148.51449942503 267.91252523478 142.96249942503 269.88052523478 135.79449942503 269.88052523478 L 122.64249942503 269.88052523478 L 122.64249942503 291.76852523478 L 109.29849942503 291.76852523478 L 109.29849942503 223.41652523478 L 135.79449942503 223.41652523478 C 142.96249942503 223.41652523478 148.51449942503 225.38452523478 152.45049942503 229.32052523478 C 156.38649942503 233.25652523478 158.35449942503 239.03252523478 158.35449942503 246.64852523478 Z M 145.01049942503 246.64852523478 C 145.01049942503 239.09652523478 141.71449942503 235.32052523478 135.12249942503 235.32052523478 L 122.64249942503 235.32052523478 L 122.64249942503 257.88052523478 L 135.12249942503 257.88052523478 C 138.32249942503 257.88052523478 140.77049942503 257.01652523478 142.46649942503 255.28852523478 C 144.16249942503 253.56052523478 145.01049942503 250.68052523478 145.01049942503 246.64852523478 Z M 180.62649942503 291.76852523478 L 168.14649942503 291.86452523478 L 168.14649942503 219.57652523478 L 180.62649942503 219.57652523478 L 180.62649942503 291.76852523478 Z M 231.79449942503 291.76852523478 L 223.44249942503 291.76852523478 L 219.60249942503 285.14452523478 L 206.25849942503 292.34452523478 C 198.83449942503 292.34452523478 193.84249942503 289.65652523478 191.28249942503 284.28052523478 C 190.00249942503 281.65652523478 189.12249942503 278.82452523478 188.64249942503 275.78452523478 C 188.16249942503 272.74452523478 187.92249942503 269.57652523478 187.92249942503 266.28052523478 C 187.92249942503 262.98452523478 187.95449942503 260.55252523478 188.01849942503 258.98452523478 C 188.08249942503 257.41652523478 188.24249942503 255.59252523478 188.49849942503 253.51252523478 C 188.75449942503 251.43252523478 189.12249942503 249.68852523478 189.60249942503 248.28052523478 C 190.08249942503 246.87252523478 190.77049942503 245.41652523478 191.66649942503 243.91252523478 C 192.56249942503 242.40852523478 193.65049942503 241.20852523478 194.93049942503 240.31252523478 C 197.81049942503 238.32852523478 201.55449942503 237.33652523478 206.16249942503 237.33652523478 L 219.31449942503 237.33652523478 L 231.79449942503 236.56852523478 L 231.79449942503 291.76852523478 Z M 219.31449942503 274.29652523478 L 219.31449942503 248.56852523478 L 209.81049942503 248.56852523478 C 206.29049942503 248.56852523478 203.84249942503 249.91252523478 202.46649942503 252.60052523478 C 201.09049942503 255.28852523478 200.40249942503 259.30452523478 200.40249942503 264.64852523478 C 200.40249942503 269.99252523478 201.05849942503 273.75252523478 202.37049942503 275.92852523478 C 203.68249942503 278.10452523478 206.16249942503 279.19252523478 209.81049942503 279.19252523478 L 219.31449942503 274.29652523478 Z M 285.36249942503 236.95252523478 L 264.53049942503 297.91252523478 C 263.57049942503 300.66452523478 262.32249942503 302.80852523478 260.78649942503 304.34452523478 C 258.22649942503 306.90452523478 254.64249942503 308.18452523478 250.03449942503 308.18452523478 L 244.17849942503 308.18452523478 L 244.17849942503 296.95252523478 L 248.01849942503 296.95252523478 C 249.81049942503 296.95252523478 251.13849942503 296.64852523478 252.00249942503 296.04052523478 C 252.86649942503 295.43252523478 253.61849942503 294.23252523478 254.25849942503 292.44052523478 L 255.21849942503 289.75252523478 L 238.70649942503 236.95252523478 L 251.85849942503 236.95252523478 L 261.65049942503 275.06452523478 L 272.21049942503 236.95252523478 L 285.36249942503 236.95252523478 Z M 333.84249942503 267.28852523478 L 301.87449942503 267.28852523478 C 301.87449942503 272.28052523478 302.65849942503 275.92852523478 304.22649942503 278.23252523478 C 305.79449942503 280.53652523478 308.94649942503 281.68852523478 313.68249942503 281.68852523478 C 316.75449942503 281.68852523478 319.02649942503 280.71252523478 320.49849942503 278.76052523478 C 321.97049942503 276.80852523478 322.70649942503 274.93652523478 322.70649942503 273.14452523478 L 333.93849942503 273.14452523478 C 333.93849942503 279.99252523478 332.09849942503 285.01652523478 328.41849942503 288.21652523478 C 324.73849942503 291.41652523478 319.87449942503 293.01652523478 313.82649942503 293.01652523478 C 307.77849942503 293.01652523478 303.09049942503 292.15252523478 299.76249942503 290.42452523478 C 292.91449942503 286.90452523478 289.49049942503 277.56052523478 289.49049942503 262.39252523478 C 289.49049942503 253.36852523478 291.44249942503 246.76052523478 295.34649942503 242.56852523478 C 299.25049942503 238.37652523478 305.20249942503 236.28052523478 313.20249942503 236.28052523478 C 327.09049942503 236.28052523478 334.03449942503 243.99252523478 334.03449942503 259.41652523478 C 334.03449942503 261.08052523478 333.97049942503 263.70452523478 333.84249942503 267.28852523478 Z M 302.16249942503 258.74452523478 L 322.70649942503 258.74452523478 C 322.70649942503 254.52052523478 321.90649942503 251.44852523478 320.30649942503 249.52852523478 C 318.70649942503 247.60852523478 316.25849942503 246.64852523478 312.96249942503 246.64852523478 C 309.66649942503 246.64852523478 307.04249942503 247.62452523478 305.09049942503 249.57652523478 C 303.13849942503 251.52852523478 302.16249942503 254.58452523478 302.16249942503 258.74452523478 Z M 374.45049942503 237.14452523478 L 370.99449942503 249.43252523478 C 370.03449942503 249.04852523478 368.94649942503 248.85652523478 367.73049942503 248.85652523478 C 364.53049942503 248.85652523478 360.59449942503 250.23252523478 355.92249942503 252.98452523478 L 355.92249942503 291.76852523478 L 343.44249942503 291.76852523478 L 343.44249942503 236.95252523478 L 352.75449942503 236.95252523478 L 355.63449942503 241.75252523478 L 368.88249942503 236.28052523478 C 369.52249942503 236.21652523478 370.38649942503 236.18452523478 371.47449942503 236.18452523478 C 372.56249942503 236.18452523478 373.55449942503 236.50452523478 374.45049942503 237.14452523478 Z"/></svg>